<svg width="65" height="65" viewBox="0 0 65 65" fill="none" xmlns="http://www.w3.org/2000/svg">
<circle cx="32.5" cy="32.5" r="32.5" fill="#78206e"/>
<path d="M32.0581 29.3386C32.1086 23.0999 32.1492 16.8613 32.2174 10.6226C32.2313 9.37916 32.3289 8.13386 32.4506 6.89541C32.4729 6.69053 32.5565 6.49714 32.6905 6.34053C32.8244 6.18391 33.0025 6.07137 33.2015 6.01762C33.52 5.91591 33.9719 6.2695 34.0383 6.6918C34.1029 7.10135 34.2026 7.50884 34.2274 7.92044C34.3867 10.5491 34.6122 13.1776 34.6597 15.8087C34.7569 21.2144 34.7812 26.6216 34.7874 32.0285C34.7933 37.1581 34.7293 42.288 34.7173 47.4176C34.7155 48.2413 34.819 49.0654 34.8925 49.8876C34.906 49.9424 34.933 49.9927 34.9709 50.0339C35.0089 50.0755 35.0566 50.1067 35.1098 50.1248C35.237 50.1397 35.4511 50.1022 35.4966 50.0177C36.3537 48.4414 37.2552 46.8845 38.0199 45.2635C39.7987 41.4924 41.9803 37.9551 44.1691 34.4202C44.5288 33.8393 44.8943 33.2305 45.608 32.9961C45.7379 32.9536 45.9605 32.8872 46.0039 32.9413C46.1847 33.1352 46.3147 33.3709 46.3823 33.6273C46.4145 33.9004 46.3703 34.177 46.2547 34.4264C45.8545 35.3097 45.4369 36.1866 44.9882 37.0459C41.7814 43.188 38.5555 49.3202 35.3573 55.4666C34.1514 57.7851 32.9819 58.8868 30.3305 56.1037C29.5665 55.3019 28.8031 54.4907 28.1235 53.6188C24.9683 49.5753 21.8325 45.5165 18.716 41.4435C18.3142 40.8833 17.9567 40.2927 17.6466 39.6771C17.4286 39.2755 17.5581 38.8735 17.8193 38.5267C18.1071 38.1451 18.944 37.9083 19.3119 38.0398C20.1287 38.3321 20.728 38.9146 21.2707 39.5401C23.3599 41.9486 25.434 44.3698 27.493 46.8041C28.8386 48.3859 30.1644 49.9844 31.5128 51.5634C31.5794 51.6414 31.7858 51.6456 31.91 51.6137C31.9638 51.5929 32.0117 51.5596 32.0497 51.5163C32.0876 51.473 32.1145 51.421 32.128 51.3648C32.1824 50.5397 32.2511 49.7126 32.2468 48.8865C32.2123 42.3702 32.1694 35.8541 32.118 29.3379L32.0581 29.3386Z" fill="white"/>
</svg>
