<svg width="93" height="93" viewBox="0 0 93 93" fill="none" xmlns="http://www.w3.org/2000/svg">
<g clip-path="url(#clip0_55_842)">
<mask id="mask0_55_842" style="mask-type:luminance" maskUnits="userSpaceOnUse" x="2" y="3" width="89" height="86">
<path d="M63.5222 3.70203L2.06042 33.9895L28.8382 88.3292L90.3 58.0417L63.5222 3.70203Z" fill="white"/>
</mask>
<g mask="url(#mask0_55_842)">
<path d="M61.9671 26.604C61.0583 27.0699 60.3991 27.0925 59.7587 26.619C59.1494 26.1691 59.0867 25.5269 59.1718 24.8644C59.216 24.5152 59.3316 24.1792 59.5124 23.877C60.4843 22.2995 61.4449 20.7113 62.5015 19.1911C62.8669 18.7194 63.3603 18.3624 63.9228 18.1628C64.183 18.0695 64.4617 18.039 64.7357 18.0741C65.0101 18.1089 65.2719 18.2083 65.5008 18.3636C65.7292 18.5191 65.9174 18.7266 66.0507 18.9688C66.1836 19.2111 66.2578 19.4813 66.2662 19.7577C66.2884 20.4555 66.1186 21.146 65.7749 21.7541C64.8629 23.1844 63.8147 24.53 62.7839 25.8816C62.5426 26.1552 62.2682 26.398 61.9671 26.604Z" fill="black"/>
<path d="M20.2104 49.5489C19.8396 49.5284 19.069 49.6223 18.3908 49.4129C17.2915 49.061 16.2276 48.6071 15.2127 48.0573C14.6818 47.7847 14.2448 47.3592 13.9581 46.8358C13.4879 45.8545 14.1689 44.6438 15.3805 44.4792C16.3749 44.3204 17.3909 44.3598 18.37 44.5951C19.3492 44.8304 20.2722 45.257 21.0859 45.8503C22.4622 46.8742 22.138 48.6541 20.2104 49.5489Z" fill="black"/>
<path d="M47.8733 11.5873C49.2525 10.8972 50.5948 11.5218 50.8573 12.7438C50.955 13.1337 50.9547 13.5414 50.8549 13.9308C50.3948 15.36 49.9261 16.7929 49.3393 18.1728C49.054 18.8425 48.5858 19.4686 47.7094 19.5857C46.6892 19.722 45.9126 19.2103 45.767 18.1992C45.7115 17.9022 45.7145 17.5971 45.7749 17.301C46.152 15.8474 46.5104 14.3843 46.9895 12.9634C47.1866 12.3791 47.6708 11.892 47.8733 11.5873Z" fill="black"/>
<path d="M25.8132 28.7996C26.128 29.6378 26.0853 30.3942 25.5359 31.0974C25.0218 31.7546 24.3283 31.819 23.6313 31.5861C22.1385 31.1231 20.7824 30.3001 19.6825 29.1897C18.9226 28.3961 18.8146 27.4731 19.2873 26.7153C19.7904 25.91 20.6086 25.5851 21.659 25.9825C23.2624 26.5903 24.7573 27.4046 25.8132 28.7996Z" fill="black"/>
<path d="M76.0645 29.8982C75.7094 29.2293 75.2579 28.6163 74.7237 28.0795C73.9886 27.3804 73.1361 27.0796 72.3299 27.2347C71.514 27.3905 70.8278 27.9948 70.3968 28.9315C70.071 29.6378 69.7766 30.3793 69.4925 31.0952C69.375 31.3889 69.2589 31.6854 69.14 31.9764L67.5591 35.8646C66.2689 39.0373 64.9774 42.2105 63.6835 45.3846C63.5867 45.6038 63.4756 45.8162 63.3503 46.0202C63.3009 46.1053 63.2493 46.1913 63.2002 46.2831C63.166 46.3435 63.1186 46.3954 63.0616 46.4346C63.0046 46.4742 62.9396 46.5003 62.8709 46.5109C62.8019 46.5219 62.7318 46.5165 62.665 46.4956C62.5987 46.4746 62.5379 46.4383 62.4876 46.39C61.285 45.2408 60.0989 44.0919 58.9157 42.9487C56.2871 40.4082 53.5658 37.7798 50.8428 35.2814C47.0513 31.806 43.2016 28.5192 39.6098 25.4821C38.7091 24.7642 37.6916 24.2069 36.6015 23.835C35.6075 23.4724 34.8639 23.7749 34.197 24.8212C33.6516 25.6693 33.7189 26.64 33.7899 27.6662L33.7965 27.7613C33.8637 28.7793 33.9355 29.7972 34.0114 30.8154C34.2313 33.9074 34.4614 37.1088 34.5838 40.2624C34.7701 45.0314 34.8225 49.8871 34.8593 54.4531C34.872 56.0031 34.8064 57.5311 34.7376 59.1485C34.707 59.8848 34.6749 60.6346 34.6515 61.4008C34.6499 61.4632 34.6355 61.5245 34.609 61.5808C34.5825 61.6371 34.5448 61.6875 34.498 61.7286C34.4512 61.7697 34.3964 61.8006 34.3371 61.8197C34.2778 61.8385 34.2152 61.845 34.1532 61.8385L32.6551 61.6838C31.7056 61.5891 30.8413 61.5032 29.9769 61.4102C28.7615 61.2817 27.5455 61.1521 26.3289 61.0215C23.9454 60.7644 21.5621 60.5128 19.1791 60.2665C18.6239 60.169 18.0523 60.2287 17.5294 60.4395C17.1638 60.6344 16.8815 60.9555 16.7351 61.343C16.2584 62.3929 16.4329 63.3144 17.2711 64.1606C17.8098 64.7068 18.4233 65.2133 19.0162 65.706L19.0429 65.7256C19.5231 66.1259 20.0274 66.5206 20.513 66.9046C21.4292 67.6288 22.381 68.3773 23.2516 69.1941C23.8054 69.7093 24.3606 70.2252 24.9171 70.7417C28.4751 74.0447 32.1527 77.4607 35.3362 81.275C36.4154 82.5694 37.655 82.9456 39.1268 82.4256C39.5318 82.2834 39.9385 82.1434 40.3417 82.0057C42.0171 81.4718 43.6534 80.8223 45.2383 80.0608C48.7989 78.2492 52.3762 76.321 55.8374 74.4571C57.3595 73.6361 58.8824 72.8187 60.4058 72.004C62.9082 70.6695 65.4123 69.3386 67.9184 68.0122L70.7937 66.4839C71.0264 66.3622 71.2584 66.2379 71.4946 66.1151C71.749 65.9827 72.0055 65.8463 72.2616 65.7101C73.1512 65.2388 74.036 64.7578 74.9224 64.281C77.0985 63.1078 79.3434 61.8967 81.5919 60.7721C82.63 60.2536 83.1855 59.5278 83.3444 58.4899C83.4369 57.7401 83.4136 56.9803 83.2751 56.2369L83.0947 55.133C82.3613 50.6302 81.5992 45.9728 80.3059 41.5166C80.1802 41.0832 80.0583 40.6514 79.9323 40.2182C78.9332 36.7312 77.8998 33.1168 76.0645 29.8982ZM78.035 56.6823C78.0445 56.7665 78.03 56.8515 77.9931 56.9277C77.9562 57.0038 77.8979 57.068 77.8265 57.1127C77.5184 57.3085 77.2024 57.5146 76.8838 57.7226C76.1553 58.1995 75.3984 58.6938 74.6026 59.1294C73.2968 59.8439 71.962 60.5521 70.6694 61.2315C68.9499 62.1443 67.1693 63.0842 65.4474 64.0541C63.4422 65.187 61.4283 66.3918 59.4822 67.5561C58.3638 68.2256 57.2449 68.8949 56.1207 69.5527C54.4801 70.5166 53.1089 71.3166 51.6518 72.0921C48.0635 74.0052 44.4047 75.9256 40.8672 77.7842L39.1145 78.7049L39.0736 78.725C38.9069 78.8027 38.7332 78.8643 38.5551 78.9096C38.4954 78.9255 38.436 78.9413 38.3819 78.962C38.2998 78.9895 38.2115 78.9925 38.1277 78.9714C38.0436 78.9499 37.9675 78.9049 37.9083 78.8417L25.6536 65.8474C25.5896 65.7808 25.5477 65.6959 25.5335 65.6046C25.5193 65.5132 25.5337 65.4199 25.5744 65.3369C25.615 65.2539 25.6803 65.1854 25.7613 65.1409C25.8421 65.0961 25.9348 65.0774 26.0267 65.0871L26.8223 65.1635C27.349 65.2138 27.8326 65.2584 28.3134 65.3113C28.9967 65.3857 29.6793 65.4582 30.3609 65.5285C32.0531 65.7086 33.8036 65.8904 35.5211 66.1286C36.6201 66.2811 37.4468 66.1399 37.9736 65.7118C38.4889 65.294 38.7747 64.5827 38.8444 63.5412L38.9097 62.6094C39.0334 60.8505 39.1602 59.0295 39.1364 57.2522C39.0488 51.353 38.9189 45.3534 38.7918 39.5509C38.7415 37.2613 38.693 34.9709 38.6464 32.6796C38.6415 32.4853 38.6418 32.2942 38.6448 32.0269L38.6464 31.5039C38.6451 31.4168 38.6698 31.3313 38.7171 31.2583C38.7647 31.1851 38.8325 31.1278 38.9125 31.0932C38.9912 31.0567 39.0789 31.0436 39.1648 31.0557C39.2507 31.0677 39.3313 31.1042 39.3969 31.1609C40.0883 31.7569 40.7702 32.327 41.4399 32.8863C42.8953 34.1034 44.2695 35.2514 45.5773 36.5035C48.5729 39.3765 51.5761 42.3335 54.4852 45.1945C56.1515 46.8329 57.8211 48.4705 59.4936 50.1075C60.3354 50.9476 61.2248 51.7387 62.157 52.4769C62.4806 52.7545 62.8647 52.9521 63.2788 53.0536C63.693 53.155 64.1248 53.1576 64.5403 53.0611C65.3402 52.8457 65.9855 52.2141 66.3627 51.2837C66.9356 49.8697 67.4996 48.4496 68.0645 47.0326C68.5596 45.7881 69.0552 44.5455 69.5521 43.3047C70.1885 41.7315 70.8295 40.1587 71.4751 38.587L72.3385 36.4803C72.3706 36.4025 72.4228 36.3351 72.4903 36.2855C72.558 36.2354 72.638 36.2052 72.7216 36.1974L73.058 36.1696C73.1607 36.161 73.264 36.1872 73.3499 36.2448C73.4357 36.3025 73.4996 36.3875 73.5306 36.4859C75.316 42.2092 77.2494 49.0854 78.035 56.6823Z" fill="black"/>
</g>
</g>
<defs>
<clipPath id="clip0_55_842">
<rect width="69" height="69" fill="white" transform="translate(0 30.5) rotate(-26.2334)"/>
</clipPath>
</defs>
</svg>
