<svg width="960" height="50" viewBox="0 0 960 50" fill="none" xmlns="http://www.w3.org/2000/svg">
<path d="M0 0V47.6L4.8 45.6C5.76 45.6 15.36 48.6 16.32 45.6C18.24 48.6 22.08 42.6 22.08 45.6C22.08 41.6 33.6 48.6 33.6 45.6C33.6 48.6 48 44.6 49.92 45.6C51.84 43.6 54.72 44.6 55.68 45.6C55.68 43.6 61.44 47.6 61.44 45.6C61.44 43.6 63.36 49.6 65.28 45.6C70.08 47.6 76.8 42.6 80.64 45.6C82.56 43.6 84.48 42.6 84.48 45.6C84.48 47.6 90.24 44.6 90.24 45.6C91.2 49.6 104.64 43.6 106.56 45.6H113.28C113.28 46.6 116.16 42.6 119.04 45.6H135.36C137.28 47.6 138.24 46.6 141.12 45.6H146.88C147.84 43.6 167.04 44.6 169.92 45.6C171.84 46.6 173.76 47.6 175.68 45.6C175.68 44.6 196.8 49.6 198.72 45.6C198.72 45.6 203.52 42.6 203.52 45.6C205.44 43.6 213.12 47.6 215.04 45.6C216.96 47.6 220.8 46.6 220.8 45.6C222.72 48.6 224.64 43.6 226.56 45.6C227.52 45.6 250.56 43.6 250.56 46.6L260.16 45.6C263.04 46.6 265.92 51.6 266.88 45.6C267.84 50.6 270.72 43.6 272.64 45.6C274.56 43.6 276.48 48.6 277.44 45.6H288.96C294.72 46.6 323.52 47.6 323.52 45.6C323.52 47.6 326.4 45.6 329.28 45.6H335.04C339.84 43.6 341.76 49.6 345.6 45.6C347.52 45.6 360 47.6 361.92 45.6H374.4C377.28 41.6 379.2 46.6 381.12 45.6H408.96C408.96 42.6 414.72 45.6 414.72 45.6H419.52C419.52 47.6 434.88 44.6 436.8 45.6C437.76 49.6 445.44 44.6 448.32 45.6C451.2 46.6 454.08 43.6 454.08 45.6C461.76 43.6 456.96 49.6 466.56 45.6H476.16C479.04 49.6 494.4 46.6 494.4 45.6C496.32 45.6 514.56 46.6 516.48 44.6C517.44 48.6 519.36 43.6 522.24 45.6C523.2 47.6 532.8 44.6 533.76 44.6C536.64 47.6 542.4 44.6 545.28 45.6C548.16 41.6 551.04 46.6 551.04 45.6H556.8C556.8 42.6 561.6 46.6 562.56 44.6C562.56 47.6 564.48 45.6 566.4 45.6C569.28 49.6 576 44.6 578.88 45.6C581.76 43.6 584.64 44.6 584.64 45.6C586.56 47.6 586.56 45.6 590.4 45.6C591.36 43.6 596.16 47.6 596.16 45.6C598.08 45.6 600 50.6 601.92 45.6H619.2C621.12 48.6 623.04 46.6 624.96 45.6L630.72 44.6C633.6 46.6 642.24 47.6 647.04 45.6C660.48 48.6 664.32 46.6 670.08 45.6C672 44.6 672.96 48.6 674.88 45.6C680.64 47.6 684.48 44.6 690.24 45.6C691.2 48.6 696 45.6 698.88 45.6C698.88 43.6 701.76 47.6 703.68 45.6C709.44 39.6 711.36 52.6 716.16 45.6C716.16 43.6 720.96 47.6 720.96 45.6C723.84 48.6 730.56 45.6 730.56 45.6C731.52 47.6 735.36 43.6 738.24 45.6C741.12 44.6 745.92 48.6 749.76 45.6H755.52C757.44 46.6 765.12 49.6 767.04 45.6H772.8C773.76 44.6 777.6 47.6 778.56 45.6C779.52 47.6 782.4 44.6 784.32 45.6C784.32 43.6 789.12 48.6 790.08 44.6C792 45.6 795.84 49.6 794.88 45.6C795.84 46.6 797.76 43.6 800.64 45.6C802.56 44.6 805.44 48.6 806.4 45.6C806.4 46.6 812.16 47.6 812.16 45.6C814.08 48.6 816 41.6 817.92 45.6C817.92 43.6 820.8 47.6 823.68 45.6C826.56 45.6 829.44 48.6 829.44 45.6C834.24 48.6 837.12 44.6 841.92 45.6C844.8 41.6 847.68 46.6 847.68 45.6H852.48C852.48 44.6 861.12 47.6 864 45.6C864.96 44.6 872.64 48.6 874.56 45.6H880.32C882.24 47.6 884.16 49.6 887.04 45.6C889.92 47.6 891.84 41.6 891.84 44.6C901.44 48.6 906.24 42.6 909.12 46.6C909.12 45.6 914.88 48.6 914.88 44.6C914.88 44.6 920.64 42.6 920.64 45.6C921.6 51.6 932.16 47.6 932.16 45.6C933.12 48.6 936 42.6 938.88 47.6C940.8 45.6 943.68 49.6 943.68 47.6C944.64 52.6 947.52 42.6 949.44 47.6C951.36 46.6 953.28 49.6 955.2 47.6C956.16 50.6 956.16 47.6 960 47.6V0H0Z" fill="#151515"/>
</svg>
