<svg width="960" height="50" viewBox="0 0 960 50" fill="none" xmlns="http://www.w3.org/2000/svg">
<path d="M0 49.0434V1.44337L4.8 3.44337C5.76 3.44337 15.36 0.443367 16.32 3.44337C18.24 0.443367 22.08 6.44337 22.08 3.44337C22.08 7.44337 33.6 0.443367 33.6 3.44337C33.6 0.443367 48 4.44337 49.92 3.44337C51.84 5.44337 54.72 4.44337 55.68 3.44337C55.68 5.44337 61.44 1.44337 61.44 3.44337C61.44 5.44337 63.36 -0.556633 65.28 3.44337C70.08 1.44337 76.8 6.44337 80.64 3.44337C82.56 5.44337 84.48 6.44337 84.48 3.44337C84.48 1.44337 90.24 4.44337 90.24 3.44337C91.2 -0.556633 104.64 5.44337 106.56 3.44337H113.28C113.28 2.44337 116.16 6.44337 119.04 3.44337H135.36C137.28 1.44337 138.24 2.44337 141.12 3.44337H146.88C147.84 5.44337 167.04 4.44337 169.92 3.44337C171.84 2.44337 173.76 1.44337 175.68 3.44337C175.68 4.44337 196.8 -0.556633 198.72 3.44337C198.72 3.44337 203.52 6.44337 203.52 3.44337C205.44 5.44337 213.12 1.44337 215.04 3.44337C216.96 1.44337 220.8 2.44337 220.8 3.44337C222.72 0.443367 224.64 5.44337 226.56 3.44337C227.52 3.44337 250.56 5.44337 250.56 2.44337L260.16 3.44337C263.04 2.44337 265.92 -2.55663 266.88 3.44337C267.84 -1.55663 270.72 5.44337 272.64 3.44337C274.56 5.44337 276.48 0.443367 277.44 3.44337H288.96C294.72 2.44337 323.52 1.44337 323.52 3.44337C323.52 1.44337 326.4 3.44337 329.28 3.44337H335.04C339.84 5.44337 341.76 -0.556633 345.6 3.44337C347.52 3.44337 360 1.44337 361.92 3.44337H374.4C377.28 7.44337 379.2 2.44337 381.12 3.44337H408.96C408.96 6.44337 414.72 3.44337 414.72 3.44337H419.52C419.52 1.44337 434.88 4.44337 436.8 3.44337C437.76 -0.556633 445.44 4.44337 448.32 3.44337C451.2 2.44337 454.08 5.44337 454.08 3.44337C461.76 5.44337 456.96 -0.556633 466.56 3.44337H476.16C479.04 -0.556633 494.4 2.44337 494.4 3.44337C496.32 3.44337 514.56 2.44337 516.48 4.44337C517.44 0.443367 519.36 5.44337 522.24 3.44337C523.2 1.44337 532.8 4.44337 533.76 4.44337C536.64 1.44337 542.4 4.44337 545.28 3.44337C548.16 7.44337 551.04 2.44337 551.04 3.44337H556.8C556.8 6.44337 561.6 2.44337 562.56 4.44337C562.56 1.44337 564.48 3.44337 566.4 3.44337C569.28 -0.556633 576 4.44337 578.88 3.44337C581.76 5.44337 584.64 4.44337 584.64 3.44337C586.56 1.44337 586.56 3.44337 590.4 3.44337C591.36 5.44337 596.16 1.44337 596.16 3.44337C598.08 3.44337 600 -1.55663 601.92 3.44337H619.2C621.12 0.443367 623.04 2.44337 624.96 3.44337L630.72 4.44337C633.6 2.44337 642.24 1.44337 647.04 3.44337C660.48 0.443367 664.32 2.44337 670.08 3.44337C672 4.44337 672.96 0.443367 674.88 3.44337C680.64 1.44337 684.48 4.44337 690.24 3.44337C691.2 0.443367 696 3.44337 698.88 3.44337C698.88 5.44337 701.76 1.44337 703.68 3.44337C709.44 9.44337 711.36 -3.55663 716.16 3.44337C716.16 5.44337 720.96 1.44337 720.96 3.44337C723.84 0.443367 730.56 3.44337 730.56 3.44337C731.52 1.44337 735.36 5.44337 738.24 3.44337C741.12 4.44337 745.92 0.443367 749.76 3.44337H755.52C757.44 2.44337 765.12 -0.556633 767.04 3.44337H772.8C773.76 4.44337 777.6 1.44337 778.56 3.44337C779.52 1.44337 782.4 4.44337 784.32 3.44337C784.32 5.44337 789.12 0.443367 790.08 4.44337C792 3.44337 795.84 -0.556633 794.88 3.44337C795.84 2.44337 797.76 5.44337 800.64 3.44337C802.56 4.44337 805.44 0.443367 806.4 3.44337C806.4 2.44337 812.16 1.44337 812.16 3.44337C814.08 0.443367 816 7.44337 817.92 3.44337C817.92 5.44337 820.8 1.44337 823.68 3.44337C826.56 3.44337 829.44 0.443367 829.44 3.44337C834.24 0.443367 837.12 4.44337 841.92 3.44337C844.8 7.44337 847.68 2.44337 847.68 3.44337H852.48C852.48 4.44337 861.12 1.44337 864 3.44337C864.96 4.44337 872.64 0.443367 874.56 3.44337H880.32C882.24 1.44337 884.16 -0.556633 887.04 3.44337C889.92 1.44337 891.84 7.44337 891.84 4.44337C901.44 0.443367 906.24 6.44337 909.12 2.44337C909.12 3.44337 914.88 0.443367 914.88 4.44337C914.88 4.44337 920.64 6.44337 920.64 3.44337C921.6 -2.55663 932.16 1.44337 932.16 3.44337C933.12 0.443367 936 6.44337 938.88 1.44337C940.8 3.44337 943.68 -0.556633 943.68 1.44337C944.64 -3.55663 947.52 6.44337 949.44 1.44337C951.36 2.44337 953.28 -0.556633 955.2 1.44337C956.16 -1.55663 956.16 1.44337 960 1.44337V49.0434H0Z" fill="#151515"/>
</svg>
