<svg width="124" height="139" viewBox="0 0 124 139" fill="none" xmlns="http://www.w3.org/2000/svg">
<g clip-path="url(#clip0_55_1021)">
<path d="M77.2435 119.027C62.0484 115.382 50.3071 111.298 37.7563 98.7904C31.0537 92.1111 24.522 85.0381 19.2938 76.6059C11.6995 64.3574 6.40848 46.3034 14.0953 35.0148C23.6439 20.9923 47.3324 30.0593 50.9406 50.3482C51.0527 50.9789 51.0744 55.0769 51.0145 52.822C50.6915 40.6769 57.8084 26.7756 64.9521 20.1322C76.2554 9.62049 88.9589 15.2736 94.9975 33.4108C99.3611 46.5169 97.8389 64.3498 94.0131 75.8236C89.5011 89.3555 80.5903 99.7383 79.5565 115.179" fill="#FC7C01"/>
<path d="M77.2435 119.027C62.0484 115.382 50.3071 111.298 37.7563 98.7904C31.0537 92.1111 24.522 85.0381 19.2938 76.6059C11.6995 64.3574 6.40848 46.3034 14.0953 35.0148C23.6439 20.9923 47.3324 30.0593 50.9406 50.3482C51.0527 50.9789 51.0744 55.0769 51.0145 52.822C50.6915 40.6769 57.8084 26.7756 64.9521 20.1322C76.2554 9.62049 88.9589 15.2736 94.9975 33.4108C99.3611 46.5169 97.8389 64.3498 94.0131 75.8236C89.5011 89.3555 80.5903 99.7383 79.5565 115.179" stroke="#FC7C01" stroke-width="1.18715" stroke-linecap="round"/>
</g>
<defs>
<clipPath id="clip0_55_1021">
<rect width="90.0119" height="115.132" fill="white" transform="translate(0 30.8333) rotate(-20.0321)"/>
</clipPath>
</defs>
</svg>
