<svg width="25" height="25" viewBox="0 0 25 25" fill="none" xmlns="http://www.w3.org/2000/svg">
<g clip-path="url(#clip0_55_1169)">
<path d="M24.4793 4.10605C24.1149 1.08848 21.5964 -0.122792 19.263 0.0165667C17.8783 0.0984882 16.5069 0.142104 14.8738 0.182497C13.3942 0.219067 11.8769 0.250474 10.5382 0.27816C8.61738 0.318036 6.6311 0.359345 4.65877 0.414304C2.39442 0.477527 0.568609 1.94817 0.217482 3.99074C0.076498 4.81057 0.0723941 5.63783 0.0811032 6.55653C0.106616 9.23938 0.14555 11.9503 0.183563 14.572L0.187664 14.8559C0.202692 15.9105 0.217435 16.9653 0.231915 18.02C0.234374 18.1977 0.240522 18.3758 0.246874 18.5539L0.247399 18.5682C0.273162 19.0095 0.268819 19.4521 0.234391 19.8928C0.112568 21.0697 0.55939 22.3246 1.42978 23.2494C2.3973 24.2774 3.76849 24.8 5.29185 24.7217C6.95415 24.6349 8.64975 24.6514 10.2895 24.6673L10.4082 24.6686C12.3541 24.6873 14.333 24.7372 16.2493 24.7857L17.2155 24.8101C17.3782 24.8199 17.5397 24.8445 17.6979 24.8839C17.7809 24.9016 17.8639 24.9192 17.9465 24.9336C17.9584 24.9356 17.9705 24.9368 17.9825 24.9368H19.031C19.0413 24.9367 19.0516 24.9359 19.0617 24.9345C19.2712 24.9035 19.4818 24.8754 19.6916 24.8477L19.7074 24.8457C20.1779 24.7837 20.6644 24.7198 21.1386 24.616C23.184 24.168 24.917 22.0289 24.9228 19.9451C24.9242 19.4542 24.926 18.9631 24.9279 18.472L24.9288 18.2254C24.9391 15.5337 24.9503 12.7503 24.893 10.0096C24.8511 8.01648 24.7119 6.02981 24.4793 4.10605ZM23.342 19.8C23.3483 21.4094 21.956 22.9162 20.1723 23.2304C18.8056 23.4711 17.4085 23.3892 16.0573 23.3104C15.5558 23.2811 15.0371 23.2507 14.5218 23.237C13.9367 23.2215 13.3408 23.191 12.7613 23.1614L12.7101 23.1587C12.4607 23.146 12.2111 23.1333 11.9636 23.1219H11.9521C11.3215 23.1219 10.691 23.1212 10.0604 23.1195C9.32853 23.1183 8.58499 23.117 7.83837 23.117C6.8563 23.117 6.04893 23.1191 5.29688 23.1236H5.26379C4.16072 23.1236 3.25079 22.7938 2.63234 22.1694C1.98931 21.5202 1.65376 20.5506 1.66226 19.3651C1.68214 16.5776 1.67014 13.7555 1.65846 11.0261C1.6519 9.46791 1.64515 7.85667 1.64433 6.26462C1.62893 5.34773 1.83461 4.44078 2.2437 3.62175C2.70763 2.72216 3.53634 2.24479 4.8515 2.11948C6.697 1.94386 8.18614 1.84818 9.53788 1.81854C13.4403 1.73238 16.4436 1.7019 19.2754 1.71957C21.3411 1.73248 22.5341 2.71223 22.923 4.71544C23.3533 6.93548 23.3472 9.21732 23.3407 11.4252L23.3401 11.6124C23.3314 14.7436 23.3319 17.345 23.3418 19.8H23.342Z" fill="white"/>
<path d="M13.0303 6.59079C11.7356 6.56641 10.5835 6.83171 9.60428 7.37592C8.42498 8.03088 7.16883 8.91518 6.79291 10.5053C6.30951 12.5497 6.52938 14.5166 7.44639 16.3515C8.10295 17.6656 9.13215 18.4741 10.4227 18.6896C11.195 18.8256 11.9769 18.897 12.7608 18.9032C13.0067 18.9032 13.2507 18.8945 13.4849 18.8774C15.2225 18.7511 16.6028 18.0487 17.5873 16.7896C19.1118 14.84 19.3768 12.6077 18.3754 10.1549C17.4071 7.78294 15.5547 6.54998 13.0303 6.59079ZM17.268 12.8585C17.2755 15.5238 15.5031 17.3038 12.7522 17.3922C12.0524 17.4042 11.3534 17.3426 10.6662 17.2086C9.78666 17.0495 9.11902 16.5158 8.68142 15.6225C7.95161 14.1319 7.77457 12.5912 8.155 11.0432C8.44813 9.85041 9.31195 8.97559 10.7957 8.36867C11.347 8.14514 11.9363 8.03163 12.5305 8.03439C13.0453 8.03684 13.5572 8.11284 14.0508 8.26013C15.9989 8.83172 17.2617 10.6366 17.268 12.8585Z" fill="white"/>
<path d="M19.6988 3.99542H19.6694C19.3814 4.0027 19.1071 4.12109 18.9032 4.32622C18.6993 4.53134 18.581 4.80758 18.5731 5.09793C18.566 5.23945 18.5874 5.38094 18.636 5.51388C18.6847 5.64684 18.7595 5.76847 18.856 5.87147C18.9567 5.97486 19.0773 6.05658 19.2103 6.11162C19.3434 6.16667 19.486 6.19391 19.6299 6.19172C19.9135 6.18249 20.1828 6.06366 20.3818 5.85981C20.581 5.65598 20.6947 5.38275 20.6997 5.09667C20.7089 4.5258 20.2412 4.01133 19.6988 3.99542Z" fill="white"/>
</g>
<defs>
<clipPath id="clip0_55_1169">
<rect width="25" height="25" fill="white"/>
</clipPath>
</defs>
</svg>
