<svg width="20" height="20" viewBox="0 0 20 20" fill="none" xmlns="http://www.w3.org/2000/svg">
<g clip-path="url(#clip0_55_925)">
<path d="M19.5835 3.2848C19.292 0.870751 17.2772 -0.0982705 15.4105 0.0132167C14.3027 0.0787539 13.2056 0.113647 11.8991 0.145961C10.7154 0.175217 9.50158 0.200343 8.43068 0.222491C6.89398 0.254392 5.30496 0.287439 3.72709 0.331406C1.91562 0.381985 0.454966 1.5585 0.174065 3.19255C0.0612778 3.84842 0.0579947 4.51023 0.0649619 5.24519C0.085372 7.39147 0.11652 9.56021 0.146929 11.6576L0.150211 11.8847C0.162233 12.7284 0.174027 13.5722 0.185611 14.416C0.187579 14.5581 0.192497 14.7006 0.197579 14.8431L0.197998 14.8545C0.218609 15.2076 0.215134 15.5616 0.187593 15.9142C0.0901335 16.8557 0.447592 17.8596 1.14391 18.5995C1.91792 19.4219 3.01487 19.84 4.23356 19.7773C5.5634 19.7079 6.91988 19.7211 8.23166 19.7338L8.32666 19.7348C9.88338 19.7498 11.4665 19.7897 12.9995 19.8286L13.7725 19.8481C13.9026 19.8559 14.0318 19.8756 14.1584 19.9071C14.2248 19.9213 14.2912 19.9353 14.3573 19.9468C14.3668 19.9485 14.3765 19.9494 14.3861 19.9494H15.2249C15.2331 19.9493 15.2413 19.9487 15.2494 19.9476C15.4171 19.9228 15.5855 19.9003 15.7534 19.8781L15.766 19.8765C16.1424 19.8269 16.5316 19.7758 16.9109 19.6928C18.5473 19.3343 19.9337 17.6231 19.9383 15.9561C19.9394 15.5633 19.9408 15.1705 19.9424 14.7776L19.9431 14.5803C19.9513 12.4269 19.9603 10.2002 19.9144 8.00761C19.8809 6.41315 19.7696 4.82381 19.5835 3.2848ZM18.6737 15.84C18.6787 17.1275 17.5649 18.3329 16.1379 18.5843C15.0445 18.7768 13.9269 18.7114 12.8459 18.6483C12.4447 18.6248 12.0298 18.6005 11.6175 18.5895C11.1494 18.5771 10.6727 18.5528 10.2091 18.529L10.1681 18.5269C9.96863 18.5167 9.76895 18.5066 9.57092 18.4975H9.56174C9.05732 18.4975 8.55289 18.4969 8.0484 18.4956C7.46291 18.4946 6.86807 18.4936 6.27077 18.4936C5.48512 18.4936 4.83923 18.4952 4.23759 18.4989H4.21111C3.32865 18.4989 2.60071 18.235 2.10595 17.7355C1.59153 17.2162 1.32309 16.4405 1.32989 15.492C1.34579 13.262 1.33619 11.0043 1.32685 8.82087C1.3216 7.57429 1.3162 6.2853 1.31554 5.01166C1.30323 4.27815 1.46777 3.55259 1.79504 2.89736C2.16618 2.17769 2.82915 1.79579 3.88128 1.69554C5.35768 1.55505 6.54899 1.47851 7.63038 1.45479C10.7523 1.38587 13.1549 1.36149 15.4204 1.37562C17.073 1.38595 18.0274 2.16975 18.3385 3.77231C18.6827 5.54835 18.6778 7.37382 18.6726 9.14012L18.6722 9.28987C18.6652 11.7948 18.6656 13.876 18.6735 15.84H18.6737Z" fill="#FC7C01"/>
<path d="M10.4242 5.27259C9.38846 5.25309 8.46674 5.46533 7.68337 5.9007C6.73993 6.42467 5.73501 7.13211 5.43427 8.40424C5.04755 10.0397 5.22345 11.6132 5.95706 13.0812C6.4823 14.1324 7.30567 14.7793 8.33813 14.9517C8.95592 15.0604 9.58149 15.1175 10.2086 15.1225C10.4053 15.1225 10.6005 15.1156 10.7879 15.1019C12.178 15.0008 13.2821 14.4389 14.0698 13.4317C15.2894 11.8719 15.5014 10.0861 14.7003 8.12392C13.9256 6.22631 12.4437 5.23995 10.4242 5.27259ZM13.8144 10.2868C13.8203 12.419 12.4024 13.843 10.2017 13.9137C9.6419 13.9233 9.08264 13.8741 8.53289 13.7669C7.82927 13.6395 7.29517 13.2126 6.94508 12.498C6.36123 11.3055 6.2196 10.0729 6.52394 8.83449C6.75845 7.88029 7.44951 7.18044 8.63649 6.6949C9.07756 6.51607 9.54895 6.42526 10.0244 6.42748C10.4362 6.42944 10.8457 6.49024 11.2406 6.60807C12.799 7.06534 13.8093 8.50928 13.8144 10.2868Z" fill="#FC7C01"/>
<path d="M15.759 3.19629H15.7355C15.5051 3.20211 15.2857 3.29683 15.1225 3.46093C14.9593 3.62502 14.8648 3.84602 14.8584 4.0783C14.8527 4.19151 14.8698 4.3047 14.9088 4.41106C14.9477 4.51742 15.0075 4.61473 15.0848 4.69712C15.1653 4.77984 15.2618 4.84521 15.3682 4.88925C15.4747 4.93329 15.5888 4.95508 15.7039 4.95333C15.9307 4.94594 16.1461 4.85088 16.3054 4.6878C16.4648 4.52473 16.5557 4.30615 16.5597 4.07729C16.567 3.62059 16.1929 3.20902 15.759 3.19629Z" fill="#FC7C01"/>
</g>
<defs>
<clipPath id="clip0_55_925">
<rect width="20" height="20" fill="white"/>
</clipPath>
</defs>
</svg>
