<svg width="72" height="72" viewBox="0 0 72 72" fill="none" xmlns="http://www.w3.org/2000/svg">
<mask id="mask0_55_852" style="mask-type:luminance" maskUnits="userSpaceOnUse" x="0" y="0" width="72" height="72">
<path d="M72 0H0V72H72V0Z" fill="white"/>
</mask>
<g mask="url(#mask0_55_852)">
<path d="M19.7381 43.3407C19.009 42.9989 18.2553 42.6453 17.5469 42.2555C17.1204 42.0674 16.6564 41.9796 16.1907 41.9994C11.0286 41.8536 6.81979 43.7818 3.65785 47.7272C0.724987 51.3861 -0.361361 55.7692 0.428814 60.7541C1.40249 66.8988 5.3646 70.864 11.2996 71.6326C11.9972 71.7228 12.6999 71.7682 13.4034 71.7677C15.9332 71.7345 18.4323 71.209 20.7614 70.2211C27.0764 67.6689 30.6873 60.6858 29.1602 53.9786C29.0081 53.2908 28.9249 52.59 28.9116 51.8864C28.7707 46.213 28.6467 40.4443 28.5274 34.8659L28.5118 34.1371C28.5006 33.6182 28.5039 33.0905 28.5069 32.5808C28.5069 32.4134 28.5088 32.2469 28.5094 32.0801C40.1667 27.5971 52.5879 23.4306 66.4615 19.3509L66.8865 32.4365C66.7462 32.4121 66.6097 32.3912 66.4755 32.3705C66.0608 32.3356 65.655 32.229 65.2763 32.0558C61.8497 30.1225 57.9173 29.638 53.2583 30.5736C48.144 31.5995 44.6672 34.2523 42.9252 38.4574C40.1059 45.2625 40.9684 51.8092 45.4193 57.3841C48.8462 61.6774 53.3486 63.3643 58.4433 62.2637C62.5225 61.3829 65.9776 59.2154 68.7117 55.8235C69.9488 54.2806 70.7988 52.4638 71.1896 50.5249C71.9914 46.5497 71.933 42.449 71.018 38.4981C70.8572 37.8726 70.7716 37.2301 70.7642 36.5842C70.8039 35.0294 70.8661 33.4475 70.9264 31.9182C71.0293 29.3156 71.1354 26.6246 71.1345 23.9746C71.1345 18.8541 71.0241 13.6497 70.9189 8.61605C70.8932 7.39967 70.8684 6.18334 70.8437 4.96696C70.8048 3.9665 70.6968 2.97002 70.5201 1.98458C70.3434 0.892733 69.7389 0.255988 68.8627 0.237152L68.7052 0.233741C67.5489 0.207918 66.3544 0.181815 65.244 0.485914C61.9175 1.39731 58.404 2.45669 54.7998 3.63634C50.8763 4.92049 46.935 6.35707 43.1232 7.74667C37.599 9.76024 31.8864 11.8428 26.1364 13.4933C25.6661 13.5838 25.2313 13.8064 24.883 14.1351L24.8277 14.2C24.3598 14.7468 23.8297 15.3634 23.734 16.0588C23.5336 17.5175 23.4765 18.9923 23.5636 20.4621C23.9233 26.5296 24.3182 32.6968 24.7001 38.6595C24.8621 41.1943 25.0242 43.7292 25.1862 46.2638C25.2007 46.4965 25.198 46.7326 25.194 46.9806C23.7051 45.2005 21.6909 44.2557 19.7381 43.3407ZM23.696 51.4287C25.4921 54.0108 25.9053 57.5739 24.7736 60.7251C24.2883 62.1478 23.4656 63.4316 22.3761 64.4672C21.2866 65.5028 19.9626 66.2588 18.5172 66.6716C17.3393 67.0017 16.112 67.2528 14.9251 67.4949C14.38 67.6062 13.8344 67.7175 13.2916 67.8367C8.35484 67.5997 5.22181 64.8408 4.46838 60.0649C3.60468 54.5915 5.6389 47.4322 14.2145 45.2673C14.612 45.1638 15.0207 45.11 15.4315 45.107C16.2345 45.1054 17.019 45.349 17.6796 45.8057C20.3764 47.6159 22.2882 49.4024 23.696 51.4287ZM29.2795 27.3291C28.9304 27.4656 28.5808 27.6025 28.2283 27.7268C28.2059 27.7253 28.1795 27.7198 28.1473 27.7143L27.7502 18.2514L66.439 4.3344V16.4791C53.1789 18.4583 40.8514 22.8198 29.4998 27.2431L29.2795 27.3291ZM67.0632 42.4994C67.066 42.6948 67.0688 42.8904 67.0688 43.0858C67.0688 43.1514 67.0898 43.2155 67.1282 43.2687C67.1665 43.3221 67.2212 43.3616 67.2839 43.3823C67.2165 43.9595 67.1623 44.544 67.1085 45.1112C67.008 46.5801 66.7976 48.0395 66.4797 49.4772C65.2898 54.2516 59.3134 58.2967 54.4141 57.6426C51.4827 57.2518 49.1015 55.4906 47.5283 52.5489C45.3091 48.4009 45.0101 44.2004 46.6395 40.0627C47.4142 37.9644 48.9715 36.2476 50.9838 35.2718C53.0653 34.2149 55.3613 33.648 57.6952 33.6149C59.0819 33.6155 60.4598 33.8379 61.7763 34.2738C64.5296 35.1791 67.3128 36.7106 67.0744 41.2026C67.052 41.6376 67.058 42.0753 67.0641 42.5007L67.0632 42.4994Z" fill="black"/>
</g>
</svg>
