<svg width="83" height="50" viewBox="0 0 83 50" fill="none" xmlns="http://www.w3.org/2000/svg">
<path d="M3.66067 34.401C3.67892 34.0315 0.845891 33.1633 0.0428423 31.3811C-0.447506 30.2929 3.39785 28.8086 5.0786 27.8029C8.86671 25.5542 13.443 24.4628 17.4511 22.6567C30.0893 16.962 42.9638 11.9283 55.5849 6.24129C60.497 4.02791 65.4264 1.71652 70.7432 0.720354C71.5952 0.56221 74.6725 -0.440679 75.4453 0.226765C76.4386 1.111 74.3443 3.61207 74.1636 4.16744C74.026 4.5907 75.2779 4.54584 75.4311 4.56706C76.3418 4.72103 77.6085 5.34658 78.3217 5.97312C79.57 7.05845 76.2679 9.11072 76.2744 9.71724C76.2826 9.82642 76.4952 9.8886 76.5633 9.90304C77.4229 10.0801 79.2798 9.87531 80.0016 10.5208C81.7326 12.0688 79.4894 13.5279 79.6246 13.8281C79.8614 14.3535 82.7984 14.5875 82.3511 15.9629C82.2306 16.3783 79.1628 17.0836 78.2247 17.5063C74.1143 19.3584 69.8429 20.9444 65.8594 23.078C53.448 29.7313 41.4091 37.0295 28.5492 42.8241C25.4622 44.2151 22.3158 45.52 19.2457 46.9033C16.9432 47.9408 14.3756 49.3009 11.8289 49.4778C10.6961 49.5594 10.3166 48.4437 9.67246 47.5152C8.54532 45.8787 7.33206 44.5068 6.49509 42.6493C6.35136 42.3303 5.88106 40.285 5.80463 40.2516C5.26893 40.0191 3.32099 39.3392 3.20479 38.3984C2.99698 36.8895 3.6561 35.8024 3.66067 34.401Z" fill="#D9D9D9" fill-opacity="0.87"/>
</svg>
