<svg width="480" height="22" viewBox="0 0 480 22" fill="none" xmlns="http://www.w3.org/2000/svg">
<g clip-path="url(#clip0_55_930)">
<path d="M479.766 1.66054C480.973 5.53917 470.918 5.25589 467.792 6.38602C430.468 12.5671 361.31 16.1564 323.167 17.6904C292.337 18.8416 261.57 20.683 230.7 21.2074C207.951 21.9789 185.174 21.1501 162.412 21.6836C114.42 21.9578 66.1867 22.2501 18.4954 17.6663C13.545 16.8707 8.28596 16.7863 3.54928 15.4211C-8.58329 8.96575 13.8457 8.9326 18.7921 9.61671C161.229 18.3715 163.101 17.8622 271.352 14.9962C319.233 13.857 366.806 9.20685 440.227 2.50137C442.094 2.30548 443.859 3.57424 443.57 5.02082C450.765 4.25529 457.93 3.32969 465.054 2.2452C468.746 1.54301 472.454 0.870956 476.114 0.0783529C476.873 -0.0741375 477.68 0.00574417 478.363 0.300896C479.045 0.596048 479.549 1.08301 479.766 1.65753V1.66054Z" fill="#B534C3"/>
</g>
<defs>
<clipPath id="clip0_55_930">
<rect width="480" height="22" fill="white"/>
</clipPath>
</defs>
</svg>
