<svg width="857" height="30" viewBox="0 0 857 30" fill="none" xmlns="http://www.w3.org/2000/svg">
<path d="M838.062 5.3609C823.257 4.80241 808.437 4.30437 793.607 3.86686C671.534 0.0904188 548.772 -1.16167 426.455 1.19532C313.726 0.338418 200.912 3.00189 88.5488 6.83075C60.4693 7.84291 32.2807 8.10502 4.15154 8.49214C-4.06602 9.06879 1.55782 13.813 6.92874 11.4076C86.6544 11.1516 171.488 5.88714 314.673 4.39108C292.218 5.24913 269.797 6.24325 247.415 7.37312C186.678 10.5326 125.471 13.1477 65.8948 19.0553C47.962 20.8578 30.3515 23.1503 12.984 25.6988C9.4431 26.586 -0.773046 26.4307 0.595719 28.8482C1.58262 30.2979 7.35524 30.2697 9.54229 29.3704C80.7925 18.3657 157.076 15.1276 232.155 11.1758C296.135 7.78443 360.408 5.52825 424.804 4.26608C566.154 5.48994 707.548 11.9581 845.461 24.5596C847.366 24.7794 849.548 24.2935 850.039 23.5031C851.021 22.0293 847.232 21.4949 844.375 21.3659C820.546 19.1964 796.677 17.0794 772.684 15.2305C692.998 9.54462 612.568 5.79843 531.96 3.09463L530.799 3.06237C610.917 2.79421 691.089 3.93944 770.983 6.2299C789.387 6.76421 833.004 8.01429 852.796 9.04459C853.772 9.09478 854.757 8.98759 855.54 8.74599C856.324 8.50439 856.843 8.14762 856.987 7.75217C857.453 5.09476 845.342 5.98392 838.072 5.3609H838.062Z" fill="#FC7C01"/>
</svg>
