<svg width="71" height="95" viewBox="0 0 71 95" fill="none" xmlns="http://www.w3.org/2000/svg">
<g clip-path="url(#clip0_55_1019)">
<path d="M20.425 58.0485C17.3291 64.2506 14.109 70.5215 10.995 76.5864C9.83049 78.8539 8.66712 81.122 7.50494 83.3903C6.84652 84.6781 6.26488 86.1584 7.71104 87.4333C8.10595 87.8067 8.6056 88.0505 9.14345 88.1327C10.1357 88.262 11.0834 87.7185 11.9218 87.1011C13.5164 85.9308 15.158 84.7655 16.7467 83.6397C20.2912 81.1253 23.9579 78.526 27.3317 75.6836C33.1827 70.7541 38.9643 65.55 44.5558 60.5171C46.7804 58.5151 49.0086 56.5168 51.2388 54.5225C54.8422 51.3125 58.4923 48.0352 62.0223 44.8653L64.2471 42.8681C65.3336 41.8929 66.2744 40.7594 65.8033 39.0787C65.344 37.4408 64.0013 37.0158 62.6201 36.8005C59.7634 36.3562 56.9082 35.9062 54.0538 35.4505C52.0794 35.1368 50.1048 34.8243 48.1304 34.5131C47.6036 34.4301 47.0795 34.3656 46.4744 34.2905L46.0243 34.2344C46.0995 34.0828 46.171 33.9367 46.2403 33.7965C46.507 33.2539 46.7377 32.7853 46.9855 32.3338C48.1456 30.2116 49.3072 28.0901 50.4709 25.9693C52.7508 21.8079 55.1104 17.5062 57.4104 13.2639C58.0725 12.0391 58.6406 10.7661 59.1097 9.45582C59.2346 9.16682 59.2974 8.85491 59.2936 8.54016C59.2899 8.22541 59.2205 7.91494 59.0892 7.62861C58.9419 7.3736 58.7414 7.1527 58.502 6.98079C58.2623 6.80884 57.9886 6.68973 57.6993 6.63143C57.3508 6.53852 57.0039 6.43733 56.6569 6.33613C55.7438 6.04446 54.8101 5.82355 53.8632 5.67529L53.8323 5.67126C49.4984 5.12154 45.0881 4.59726 40.8238 4.08977C38.3084 3.7904 35.7934 3.489 33.2785 3.18553C29.8638 2.7699 29.3528 3.04823 27.8072 6.16227C27.6507 6.47828 27.4796 6.81336 27.2912 7.1267L23.6614 13.1627C19.8569 19.4953 15.9231 26.0429 12.0301 32.4679C11.2734 33.7183 10.4619 34.9678 9.67705 36.1758C8.78764 37.545 7.868 38.9613 7.02031 40.3907C5.8599 42.3445 5.55335 43.676 6.02705 44.7093C6.50074 45.7426 7.70113 46.3761 9.92668 46.7802L12.6506 47.2727C14.3963 47.5878 16.1415 47.9054 17.8861 48.2254C19.3466 48.4956 20.8048 48.7758 22.3478 49.0718L24.1157 49.4104C23.7559 50.2707 23.4114 51.1278 23.0738 51.9596C22.2141 54.0856 21.4014 56.0936 20.425 58.0485ZM40.7884 34.2025C40.3831 35.3984 40.3774 36.2605 40.768 36.916C41.1585 37.5715 41.9059 37.9662 43.1268 38.1768C46.5547 38.7673 50.0476 39.3092 53.426 39.8336C54.7656 40.0412 56.1051 40.2502 57.4444 40.4605L57.532 40.4719C57.7196 40.4965 57.9047 40.5348 58.0862 40.5864C53.858 44.3466 49.678 48.2711 45.6313 52.0719C36.8211 60.3469 27.7229 68.892 17.7136 76.0919C18.2037 75.0769 18.6965 74.063 19.1922 73.0505C20.8063 69.7431 22.4722 66.3231 23.9716 62.8939C25.2385 59.9945 26.3406 56.972 27.4065 54.0489C27.8206 52.9139 28.2344 51.7792 28.6579 50.6486C28.8526 50.0918 28.9877 49.5158 29.0604 48.9303C29.4696 46.0728 28.6445 44.9672 25.7878 44.552C22.686 44.1012 19.5286 43.6756 16.4749 43.2654C15.2262 43.0972 13.9778 42.9284 12.7294 42.7588C12.4767 42.7259 12.2248 42.6912 11.9456 42.6548L10.832 42.5098C11.8903 40.8522 12.9487 39.2034 14.0066 37.5634C20.6562 27.226 26.9393 17.4587 31.8972 6.83236L54.2856 9.74828C54.2429 9.84036 54.2028 9.92725 54.1651 10.0093C53.9947 10.3802 53.8718 10.6483 53.7273 10.9003C52.4536 13.1276 51.1782 15.3539 49.9015 17.5791C47.461 21.8378 44.9355 26.2409 42.4696 30.5825C41.7946 31.7328 41.2315 32.945 40.7884 34.2025Z" fill="#FC7C01"/>
</g>
<defs>
<clipPath id="clip0_55_1019">
<rect width="59.4015" height="87.688" fill="white" transform="translate(11.3251) rotate(7.42058)"/>
</clipPath>
</defs>
</svg>
